Simulation
nRows=20
nColumns=15
endheader
time  TH_x TH_y TH_z SC_y  SC_z  SC_x  AC_y  AC_z  AC_x  GH_y  GH_z  GH_yy  EL_x  PS_y
1.95  0.000000  0.000000  0.000000  -32.03948385024779  7.862941918627881  16.157423829711508  63.333008324429734  16.33231456201858  6.57750042802686  46.99698212719937  58.94615952315752  -39.92817386499743  22.473037566773797  0.000000
1.989  0.000000  0.000000  0.000000  -31.82541356103072  7.619672540214323  15.486260679379788  63.324834984376814  16.039020198997655  6.210139332963514  47.02434033453741  57.85371850339877  -39.16058088269894  22.68506099518096  0.000000
2.028  0.000000  0.000000  0.000000  -31.53859026301417  7.368069160610464  14.656846580235586  63.19821638370496  15.824874166094173  5.862876270590153  47.072354767609205  56.63338514238258  -38.326082045790756  22.90580334884338  0.000000
2.067  0.000000  0.000000  0.000000  -31.181507179663143  7.11036991756956  13.657911517727864  62.938637447318875  15.736984447820374  5.5542957871861995  47.131314247514  55.30345233665872  -37.44352215571244  23.129965904283516  0.000000
2.106  0.000000  0.000000  0.000000  -30.760831795135164  6.847795121277504  12.515551323264154  62.55362605176228  15.773274535226324  5.280447835988848  47.18970240668703  53.881502561827155  -36.52498680936037  23.346936172067373  0.000000
2.145  0.000000  0.000000  0.000000  -30.29225580461257  6.5608906162951  11.257165702391948  62.0761154769375  15.900591835312339  5.025612501327913  47.23791323546845  52.37830595415366  -35.563720919674125  23.547540736383777  0.000000
2.184  0.000000  0.000000  0.000000  -29.802166254064794  6.224453592763079  9.893029003189088  61.558718011230994  16.09912562792553  4.788015525745375  47.26781423512323  50.7819542592425  -34.54779195287991  23.718190772416087  0.000000
2.223  0.000000  0.000000  0.000000  -29.326539860318206  5.817300255413284  8.395554400023219  61.04787768234894  16.37903878180784  4.589392941672248  47.26469517398161  49.08316004476047  -33.45537171572314  23.852165366739207  0.000000
2.262  0.000000  0.000000  0.000000  -28.884569336327967  5.305139036648  6.705293473597309  60.57482522529547  16.81689298486305  4.4549447936271145  47.203503396686465  47.25369692727159  -32.27462639722081  23.946528186910385  0.000000
2.301  0.000000  0.000000  0.000000  -28.48390551499479  4.652837141512408  4.770008415925788  60.13385983700877  17.47293763555635  4.38893211472674  47.06452463923509  45.28161170773292  -30.992622089276143  24.00880572971344  0.000000
2.34  0.000000  0.000000  0.000000  -28.124498756987297  3.837469915388005  2.608505312235624  59.71337433800518  18.382526892951816  4.378006856911417  46.824271707689434  43.15262540577976  -29.60345224348075  24.06564426899473  0.000000
2.379  0.000000  0.000000  0.000000  -27.8041915471115  2.917429777103416  0.5552689638635326  59.34798502355148  19.282841192537308  4.302506867931542  46.460059488448294  40.90223882019579  -28.0973799128991  24.13066760866941  0.000000
2.418  0.000000  0.000000  0.000000  -27.478106504284035  2.0258316356090984  -1.0252269540508232  59.000684406624494  19.773965336900407  4.034502535429651  45.95132179179492  38.6686845811703  -26.45823670020322  24.250263293853088  0.000000
2.457  0.000000  0.000000  0.000000  -27.14719712884631  1.2664115293756946  -1.9917576644954615  58.659933405838096  19.68179054257229  3.5617130309600578  45.259784750608155  36.549310957880046  -24.653889586727654  24.435401038157398  0.000000
2.496  0.000000  0.000000  0.000000  -26.85053872857866  0.6800226150872786  -2.561201930342086  58.27536779545984  19.16750676153999  3.020959339401271  44.37471577192118  34.57215234195906  -22.65713827458957  24.695100105497776  0.000000
2.535  0.000000  0.000000  0.000000  -26.589274837691782  0.23319873114596437  -2.914580534099506  57.80768179294121  18.401071757645525  2.459653110724166  43.320344513940476  32.708905190942815  -20.469518933023394  25.029709052100205  0.000000
2.574  0.000000  0.000000  0.000000  -26.353546735679743  -0.13232040115129054  -3.1645826575002536  57.231600914424334  17.518955376968353  1.8935881173587048  42.13719589443057  30.897963988944397  -18.107226407705166  25.422746268064188  0.000000
2.613  0.000000  0.000000  0.000000  -26.127384266483425  -0.424593575427203  -3.3664052178024733  56.53279443724974  16.564953047375045  1.3142411239146639  40.8797898670571  29.12148152850561  -15.619122224716897  25.851643433569063  0.000000
2.652  0.000000  0.000000  0.000000  -25.899763826245636  -0.6519401341187341  -3.5329211561244356  55.6948155144045  15.558158998752015  0.7256022341671645  39.58114799912943  27.371402642194695  -13.039138687104158  26.287754445539  0.000000
2.691  0.000000  0.000000  0.000000  -25.6632226136471  -0.8008695452717287  -3.628665109359009  54.73231988324032  14.472232479592103  0.11292771213159927  38.24881306115789  25.65924926007577  -10.39890286722919  26.71093090524102  0.000000
